<svg id="Capa_1" enable-background="new 0 0 512 512" height="512" viewBox="0 0 512 512" width="512" xmlns="http://www.w3.org/2000/svg"><g><path d="m190.624 325.271h130.752v-97.823h-130.752zm50.376-63.911h30v30h-30z"/><path d="m219.658 182.382v15.066h72.684v-15.066c0-20.039-16.303-36.341-36.342-36.341s-36.342 16.303-36.342 36.341z"/><path d="m256 0-236.34 77.489v198.171c0 130.527 105.813 236.34 236.34 236.34 130.527 0 236.34-105.813 236.34-236.34v-198.171zm192.5 270.765c0 106.145-86.355 192.5-192.5 192.5s-192.5-86.355-192.5-192.5v-159.702l192.5-63.114 192.5 63.115z"/><path d="m93.5 132.799v137.966c0 89.603 72.897 162.5 162.5 162.5s162.5-72.897 162.5-162.5v-137.966l-162.5-53.279zm228.842 49.583v15.066h29.034v157.823h-190.752v-157.823h29.034v-15.066c0-36.581 29.761-66.341 66.342-66.341s66.342 29.761 66.342 66.341z"/></g></svg>